<svg xmlns="http://www.w3.org/2000/svg" width="960" height="540" viewBox="0 0 384 288" role="img" aria-labelledby="title desc">
  <title id="title">Canvas Cutter</title>
  <desc id="desc">keypad cutting machine</desc>
  <defs>
    <linearGradient id="bg" x1="0" y1="0" x2="1" y2="1">
      <stop offset="0" stop-color="#0f766e"/>
      <stop offset="1" stop-color="#475569"/>
    </linearGradient>
    <pattern id="grid" width="28" height="28" patternUnits="userSpaceOnUse">
      <path d="M28 0H0v28" fill="none" stroke="#fff" stroke-opacity=".14" stroke-width="1"/>
    </pattern>
  </defs>
  <rect width="384" height="288" rx="0" fill="url(#bg)"/>
  <rect width="384" height="288" fill="url(#grid)"/>
  <circle cx="324" cy="40" r="70" fill="#fff" opacity=".12"/>
  <circle cx="56" cy="248" r="96" fill="#fff" opacity=".1"/>
  
      <rect x="80" y="176" width="232" height="52" rx="18" fill="#fff" opacity=".92"/>
      <path d="M98 132h168l36 44H82z" fill="#fff" opacity=".76"/>
      <path d="M130 92h132M150 92v84M242 92v84M112 204h176" stroke="#0f766e" stroke-width="12" stroke-linecap="round" stroke-linejoin="round" fill="none"/>
      <path d="M194 82l-24 94h48z" fill="#475569" opacity=".9"/>
    
  <rect x="28" y="228" width="328" height="40" rx="20" fill="#0f172a" opacity=".52"/>
  <text x="48" y="249" font-family="Inter, Arial, sans-serif" font-size="16" font-weight="700" fill="#fff">Canvas Cutter</text>
  <text x="48" y="264" font-family="Inter, Arial, sans-serif" font-size="10" font-weight="600" fill="#fff" opacity=".76">keypad cutting machine</text>
</svg>
