<svg xmlns="http://www.w3.org/2000/svg" width="960" height="540" viewBox="0 0 384 288" role="img" aria-labelledby="title desc">
  <title id="title">Ilaw Controller</title>
  <desc id="desc">automatic relay lighting</desc>
  <defs>
    <linearGradient id="bg" x1="0" y1="0" x2="1" y2="1">
      <stop offset="0" stop-color="#ca8a04"/>
      <stop offset="1" stop-color="#ea580c"/>
    </linearGradient>
    <pattern id="grid" width="28" height="28" patternUnits="userSpaceOnUse">
      <path d="M28 0H0v28" fill="none" stroke="#fff" stroke-opacity=".14" stroke-width="1"/>
    </pattern>
  </defs>
  <rect width="384" height="288" rx="0" fill="url(#bg)"/>
  <rect width="384" height="288" fill="url(#grid)"/>
  <circle cx="324" cy="40" r="70" fill="#fff" opacity=".12"/>
  <circle cx="56" cy="248" r="96" fill="#fff" opacity=".1"/>
  
      <circle cx="194" cy="126" r="56" fill="#fff" opacity=".92"/>
      <path d="M166 188h56M172 214h44M194 44v26M116 76l20 20M272 76l-20 20M84 136h30M274 136h30" stroke="#ca8a04" stroke-width="12" stroke-linecap="round" stroke-linejoin="round" fill="none"/>
      <path d="M158 126a36 36 0 0 1 72 0" stroke="#ea580c" stroke-width="10" stroke-linecap="round" stroke-linejoin="round" fill="none"/>
    
  <rect x="28" y="228" width="328" height="40" rx="20" fill="#0f172a" opacity=".52"/>
  <text x="48" y="249" font-family="Inter, Arial, sans-serif" font-size="16" font-weight="700" fill="#fff">Ilaw Controller</text>
  <text x="48" y="264" font-family="Inter, Arial, sans-serif" font-size="10" font-weight="600" fill="#fff" opacity=".76">automatic relay lighting</text>
</svg>
