<svg xmlns="http://www.w3.org/2000/svg" width="960" height="540" viewBox="0 0 384 288" role="img" aria-labelledby="title desc">
  <title id="title">League System</title>
  <desc id="desc">standings and schedules</desc>
  <defs>
    <linearGradient id="bg" x1="0" y1="0" x2="1" y2="1">
      <stop offset="0" stop-color="#ea580c"/>
      <stop offset="1" stop-color="#2563eb"/>
    </linearGradient>
    <pattern id="grid" width="28" height="28" patternUnits="userSpaceOnUse">
      <path d="M28 0H0v28" fill="none" stroke="#fff" stroke-opacity=".14" stroke-width="1"/>
    </pattern>
  </defs>
  <rect width="384" height="288" rx="0" fill="url(#bg)"/>
  <rect width="384" height="288" fill="url(#grid)"/>
  <circle cx="324" cy="40" r="70" fill="#fff" opacity=".12"/>
  <circle cx="56" cy="248" r="96" fill="#fff" opacity=".1"/>
  
      <rect x="74" y="66" width="240" height="180" rx="22" fill="#fff" opacity=".92"/>
      <path d="M194 66v180M74 156h240M118 112a48 48 0 0 1 0 88M270 112a48 48 0 0 0 0 88" stroke="#ea580c" stroke-width="9" stroke-linecap="round" stroke-linejoin="round" fill="none"/>
      <circle cx="194" cy="156" r="30" stroke="#2563eb" stroke-width="9" fill="none"/>
    
  <rect x="28" y="228" width="328" height="40" rx="20" fill="#0f172a" opacity=".52"/>
  <text x="48" y="249" font-family="Inter, Arial, sans-serif" font-size="16" font-weight="700" fill="#fff">League System</text>
  <text x="48" y="264" font-family="Inter, Arial, sans-serif" font-size="10" font-weight="600" fill="#fff" opacity=".76">standings and schedules</text>
</svg>
