<svg xmlns="http://www.w3.org/2000/svg" width="960" height="540" viewBox="0 0 384 288" role="img" aria-labelledby="title desc">
  <title id="title">Market Management</title>
  <desc id="desc">permits, prices, schedules</desc>
  <defs>
    <linearGradient id="bg" x1="0" y1="0" x2="1" y2="1">
      <stop offset="0" stop-color="#16a34a"/>
      <stop offset="1" stop-color="#0f766e"/>
    </linearGradient>
    <pattern id="grid" width="28" height="28" patternUnits="userSpaceOnUse">
      <path d="M28 0H0v28" fill="none" stroke="#fff" stroke-opacity=".14" stroke-width="1"/>
    </pattern>
  </defs>
  <rect width="384" height="288" rx="0" fill="url(#bg)"/>
  <rect width="384" height="288" fill="url(#grid)"/>
  <circle cx="324" cy="40" r="70" fill="#fff" opacity=".12"/>
  <circle cx="56" cy="248" r="96" fill="#fff" opacity=".1"/>
  
      <path d="M78 112h232l-24-48H102z" fill="#fff" opacity=".92"/>
      <path d="M96 112v122h196V112M122 112v-24M170 112v-24M218 112v-24M266 112v-24" stroke="#16a34a" stroke-width="10" stroke-linecap="round" stroke-linejoin="round" fill="none"/>
      <rect x="128" y="152" width="60" height="82" rx="8" fill="#0f766e" opacity=".86"/>
      <path d="M210 158h54M210 186h54M210 214h54" stroke="#16a34a" stroke-width="9" stroke-linecap="round" stroke-linejoin="round" fill="none"/>
    
  <rect x="28" y="228" width="328" height="40" rx="20" fill="#0f172a" opacity=".52"/>
  <text x="48" y="249" font-family="Inter, Arial, sans-serif" font-size="16" font-weight="700" fill="#fff">Market Management</text>
  <text x="48" y="264" font-family="Inter, Arial, sans-serif" font-size="10" font-weight="600" fill="#fff" opacity=".76">permits, prices, schedules</text>
</svg>
